<svg width="160" height="160" viewBox="0 0 160 160" fill="none" xmlns="http://www.w3.org/2000/svg">
<path fill-rule="evenodd" clip-rule="evenodd" d="M0 80V160H80H160V80V0H80H0V80ZM101.374 43.3745L80 64.7485L58.6255 43.3745L37.2515 22H80H122.748L101.374 43.3745ZM43.3745 101.374L22 122.748V80V37.2515L43.3745 58.6255L64.7485 80L43.3745 101.374ZM138 80.1245V122.748L116.627 101.375L95.253 80.0015L116.499 58.7505C128.184 47.063 137.803 37.5 137.873 37.5C137.943 37.5 138 56.681 138 80.1245ZM101.5 116.75L122.745 138H80H37.2545L58.5 116.75C70.185 105.062 79.86 95.5 80 95.5C80.14 95.5 89.815 105.062 101.5 116.75Z" fill="#181818"/>
</svg>
